<?xml version="1.0" encoding="iso-8859-1"?>
<!-- Generator: Adobe Illustrator 19.0.0, SVG Export Plug-In . SVG Version: 6.00 Build 0)  -->
<svg version="1.1" id="Layer_1" xmlns="http://www.w3.org/2000/svg" xmlns:xlink="http://www.w3.org/1999/xlink" x="0px" y="0px"
	 viewBox="0 0 508 508" style="enable-background:new 0 0 508 508;" xml:space="preserve">
<circle style="fill:#90DFAA;" cx="254" cy="254" r="254"/>
<path style="fill:#2C9984;" d="M34.8,382c44,75.2,125.6,126,219.2,126s175.2-50.4,219.2-126H34.8z"/>
<path style="fill:#2B3B4E;" d="M335.6,315.6v27.2h-44v-9.2c0-3.2-2.4-5.6-5.6-5.6h-69.6c-3.2,0-5.6,2.4-5.6,5.6v9.2h-56.4
	c-3.6-13.2-15.6-22.8-30-22.8s-26.4,9.6-30,22.8H67.2v-27.2H335.6z"/>
<path style="fill:#324A5E;" d="M335.6,315.6H67.2c-7.6,0-14-6.4-14-14V164c0-7.6,6.4-14,14-14h254.4c7.6,0,14,6.4,14,14L335.6,315.6
	L335.6,315.6z"/>
<rect x="53.2" y="203.6" style="fill:#FF7058;" width="282.4" height="50"/>
<polygon style="fill:#84DBFF;" points="335.6,205.2 335.6,349.6 454.8,349.6 454.8,282.8 412.4,205.2 "/>
<path style="fill:#FFFFFF;" d="M454.8,282.8v56h-21.6v10.8h-22c-0.8-16.4-14.4-29.6-31.2-29.6c-16.4,0-30,13.2-31.2,29.6h-13.6v-144
	H412L454.8,282.8z"/>
<polygon style="fill:#84DBFF;" points="440.4,275.6 407.2,214.4 344.8,214.4 344.8,275.6 "/>
<polygon style="fill:#54C0EB;" points="385.6,275.6 440.4,275.6 407.2,214.4 402.8,214.4 "/>
<circle style="fill:#324A5E;" cx="124.4" cy="351.2" r="31.2"/>
<g>
	<circle style="fill:#E6E9EE;" cx="124.4" cy="351.2" r="20"/>
	<path style="fill:#E6E9EE;" d="M286,356.4h-69.2c-3.2,0-5.6-2.4-5.6-5.6v-17.6c0-3.2,2.4-5.6,5.6-5.6H286c3.2,0,5.6,2.4,5.6,5.6
		v17.6C291.6,354,289.2,356.4,286,356.4z"/>
</g>
<rect x="443.2" y="310.8" style="fill:#FF7058;" width="11.6" height="23.2"/>
<g>
	<path style="fill:#FFFFFF;" d="M86.8,243.2c-1.2,0-2.4-1.2-2.4-2.4v-23.6c0-1.2,1.2-2.4,2.4-2.4h6.8c0,0,12,0,12,14
		c0,14.4-12,14-12,14h-6.8V243.2z M89.2,238.4h4.4c0,0,2,0,3.6-1.2c2.4-1.6,3.6-4.4,3.6-8.4s-1.2-6.8-3.6-8.4
		c-1.6-1.2-3.6-1.2-3.6-1.2h-4.4V238.4z"/>
	<path style="fill:#FFFFFF;" d="M134.8,240.8c0,1.2-1.2,2.4-2.4,2.4h-12.8c-1.2,0-2.4-1.2-2.4-2.4v-23.6c0-1.2,1.2-2.4,2.4-2.4h12.8
		c1.2,0,2.4,1.2,2.4,2.4s-1.2,2.4-2.4,2.4H122v7.2h8c1.2,0,2.4,1.2,2.4,2.4s-1.2,2.4-2.4,2.4h-8v7.2h10.8
		C134,238.4,134.8,239.2,134.8,240.8z"/>
	<path style="fill:#FFFFFF;" d="M148.8,243.2c-1.2,0-2.4-1.2-2.4-2.4v-23.6c0-1.2,1.2-2.4,2.4-2.4s2.4,1.2,2.4,2.4v21.2h8.4
		c1.2,0,2.4,1.2,2.4,2.4s-1.2,2.4-2.4,2.4L148.8,243.2L148.8,243.2z"/>
	<path style="fill:#FFFFFF;" d="M172.8,240.8v-23.6c0-1.2,1.2-2.4,2.4-2.4s2.4,1.2,2.4,2.4v23.6c0,1.2-1.2,2.4-2.4,2.4
		S172.8,242,172.8,240.8z"/>
	<path style="fill:#FFFFFF;" d="M198.8,241.6l-9.6-23.6c0-0.4-0.4-3.2,2-3.2c0.8,0,2,0.4,2,1.6l7.2,18l7.2-18c0.4-0.8,1.2-1.6,2-1.6
		c2.8,0.4,2.4,2.8,2,3.2l-9.6,23.6c-0.4,0.8-1.2,1.6-2,1.6C200,243.2,199.2,242.4,198.8,241.6z"/>
	<path style="fill:#FFFFFF;" d="M241.6,240.8c0,1.2-1.2,2.4-2.4,2.4h-12.8c-1.2,0-2.4-1.2-2.4-2.4v-23.6c0-1.2,1.2-2.4,2.4-2.4h12.8
		c1.2,0,2.4,1.2,2.4,2.4s-1.2,2.4-2.4,2.4h-10.8v7.2h8.4c1.2,0,2.4,1.2,2.4,2.4s-1.2,2.4-2.4,2.4h-8.4v7.2h10.8
		C240.8,238.4,241.6,239.2,241.6,240.8z"/>
	<path style="fill:#FFFFFF;" d="M304,216.8c0,0.4,0,0.8-0.4,1.2l-8,11.2v11.2c0,1.2-1.2,2.4-2.4,2.4c-1.2,0-2.4-1.2-2.4-2.4v-11.2
		l-8-11.2c-0.4-0.4-0.4-0.8-0.4-1.2c0-1.2,0.8-2.4,2.4-2.4c0.8,0,1.6,0.4,2,1.2l6.4,9.2l6.4-9.2c0.4-0.8,1.2-1.2,2-1.2
		c0.4,0,0.8,0,1.2,0.4C303.6,215.6,304,216.4,304,216.8z"/>
</g>
<path style="fill:#E6E9EE;" d="M364.8,286.8h-15.2c-2.8,0-5.2-2.4-5.2-5.2V280H370v2C370,284.8,367.6,286.8,364.8,286.8z"/>
<path style="fill:#324A5E;" d="M455.2,338.8h-22v16h22c2,0,3.6-1.6,3.6-3.6v-8.4C458.8,340.4,457.2,338.8,455.2,338.8z"/>
<path style="fill:#2B3B4E;" d="M415.6,349.6h-4.4c-0.8-16.4-14.4-29.6-31.2-29.6s-30.4,13.2-31.2,29.6h-4.4
	c0.8-18.8,16.4-34,35.6-34S414.8,330.4,415.6,349.6z"/>
<circle style="fill:#324A5E;" cx="380" cy="351.2" r="31.2"/>
<circle style="fill:#E6E9EE;" cx="380" cy="351.2" r="20"/>
<path style="fill:#FFFFFF;" d="M266.4,232.4c2.8-1.6,4.8-4.8,4.8-8.4c0-5.2-4.4-9.6-9.6-9.6l0,0h-6.4c-1.2,0-2.4,1.2-2.4,2.4v23.6
	c0,1.2,1.2,2.4,2.4,2.4c1.2,0,2.4-1.2,2.4-2.4v-7.2h3.6l5.2,8.4c0.8,1.2,2,1.6,3.2,0.8s1.6-2,0.8-3.2L266.4,232.4z M258,228.8v-9.2
	h4c2.4,0,4.8,2,4.8,4.8c0,2.4-2,4.8-4.8,4.8h-4V228.8z"/>
<g>
</g>
<g>
</g>
<g>
</g>
<g>
</g>
<g>
</g>
<g>
</g>
<g>
</g>
<g>
</g>
<g>
</g>
<g>
</g>
<g>
</g>
<g>
</g>
<g>
</g>
<g>
</g>
<g>
</g>
</svg>
