<?xml version="1.0" encoding="iso-8859-1"?>
<!-- Generator: Adobe Illustrator 19.0.0, SVG Export Plug-In . SVG Version: 6.00 Build 0)  -->
<svg version="1.1" id="Layer_1" xmlns="http://www.w3.org/2000/svg" xmlns:xlink="http://www.w3.org/1999/xlink" x="0px" y="0px"
	 viewBox="0 0 496.158 496.158" style="enable-background:new 0 0 496.158 496.158;" xml:space="preserve">
<path style="fill:#EA4949;" d="M0,248.085C0,111.062,111.07,0.003,248.076,0.003c137.012,0,248.082,111.059,248.082,248.082
	c0,137-111.07,248.07-248.082,248.07C111.07,496.155,0,385.085,0,248.085z"/>
<path style="fill:#C1E5E2;" d="M300.643,313.082c-2.699,0-4.888-2.188-4.888-4.888V144.033c0-11.814-7.062-21.796-15.421-21.796
	h-13.537c-8.357,0-15.42,9.981-15.42,21.796v17.056c0,2.699-2.188,4.889-4.887,4.889s-4.888-2.189-4.888-4.889v-17.056
	c0-17.409,11.302-31.572,25.194-31.572h13.537c13.895,0,25.195,14.163,25.195,31.572v164.161
	C305.53,310.893,303.343,313.082,300.643,313.082z"/>
<path style="fill:#F4F3EA;" d="M281.8,318.079c0,20.297-15.43,52.881-34.457,52.881l0,0c-19.027,0-34.453-32.584-34.453-52.881
	V179.847c0-20.297,15.426-17.691,34.453-17.691l0,0c19.027,0,34.457-2.605,34.457,17.691V318.079z"/>
<g>
	<path style="fill:#E2E1D0;" d="M281.608,176.202c0.016,0.182,0.033,0.363,0.047,0.545
		C281.64,176.566,281.626,176.379,281.608,176.202z"/>
	<path style="fill:#E2E1D0;" d="M281.733,177.743c0.04,0.697,0.066,1.396,0.066,2.104
		C281.8,179.113,281.773,178.419,281.733,177.743z"/>
</g>
<g>
	<path style="fill:#CECCB7;" d="M281.526,175.295c-0.016-0.006-0.031-0.013-0.048-0.019c0.046,0.305,0.094,0.607,0.13,0.926
		C281.579,175.901,281.561,175.595,281.526,175.295z"/>
	<path style="fill:#CECCB7;" d="M281.655,176.747c0.031,0.326,0.059,0.656,0.078,0.996
		C281.715,177.409,281.683,177.079,281.655,176.747z"/>
</g>
<g>
	<path style="fill:#DDDBCE;" d="M281.733,177.743c-0.02-0.34-0.047-0.67-0.078-0.996c-0.014-0.182-0.031-0.363-0.047-0.545
		c-0.036-0.318-0.084-0.621-0.13-0.926c-9.464-3.566-19.191-7.921-28.298-13.178c-1.898,0.027-3.848,0.057-5.838,0.057
		c-2.878,0-5.67-0.06-8.341-0.09c3.054,2.042,6.257,4.057,9.606,6.018c10.746,6.291,22.232,11.325,33.191,15.314v-3.551
		C281.8,179.14,281.773,178.44,281.733,177.743z"/>
	<path style="fill:#DDDBCE;" d="M281.8,216.442v-7.999c-9.842-3.692-19.984-8.229-29.421-13.755
		c-15.606-9.136-27.984-19.602-37.008-28.536c-1.003,2.663-1.726,5.476-2.121,8.403c9.017,8.527,20.792,18.047,35.358,26.573
		C259.354,207.42,270.841,212.454,281.8,216.442z"/>
	<path style="fill:#DDDBCE;" d="M212.89,196.69v10.57c9.062,8.613,20.959,18.272,35.719,26.914
		c10.746,6.291,22.232,11.324,33.191,15.312v-7.998c-9.842-3.693-19.984-8.23-29.421-13.755
		C235.284,217.727,222.07,206.129,212.89,196.69z"/>
	<path style="fill:#DDDBCE;" d="M212.89,229.736v10.569c9.062,8.613,20.959,18.273,35.719,26.914
		c10.746,6.291,22.232,11.324,33.191,15.313v-7.999c-9.842-3.692-19.984-8.229-29.421-13.754
		C235.284,250.772,222.07,239.174,212.89,229.736z"/>
	<path style="fill:#DDDBCE;" d="M212.89,262.782v10.568c9.062,8.613,20.959,18.273,35.719,26.914
		c10.746,6.291,22.232,11.325,33.191,15.314v-8c-9.842-3.691-19.984-8.229-29.421-13.754
		C235.284,283.818,222.07,272.22,212.89,262.782z"/>
	<path style="fill:#DDDBCE;" d="M212.89,295.827v10.569c9.062,8.613,20.959,18.272,35.719,26.913
		c8.512,4.983,17.486,9.172,26.297,12.684c1.053-2.268,1.999-4.594,2.832-6.936c-8.547-3.389-17.215-7.42-25.358-12.188
		C235.284,316.864,222.07,305.265,212.89,295.827z"/>
	<path style="fill:#DDDBCE;" d="M214.425,330.429c1.143,4.988,2.894,10.152,5.13,15.059c7.991,6.931,17.666,14.202,29.054,20.868
		c1.871,1.096,3.769,2.145,5.679,3.164c2.53-1.05,4.953-2.65,7.247-4.646c-3.102-1.558-6.164-3.207-9.155-4.958
		C236.212,350.452,223.52,339.566,214.425,330.429z"/>
</g>
<g>
</g>
<g>
</g>
<g>
</g>
<g>
</g>
<g>
</g>
<g>
</g>
<g>
</g>
<g>
</g>
<g>
</g>
<g>
</g>
<g>
</g>
<g>
</g>
<g>
</g>
<g>
</g>
<g>
</g>
</svg>
